<?xml version="1.0" standalone="no"?><svg xmlns="http://www.w3.org/2000/svg" viewBox="0 0 1440 320"><path fill="#d0e6ff" fill-opacity="1" d="M0,32L40,74.7C80,117,160,203,240,224C320,245,400,203,480,202.7C560,203,640,245,720,245.3C800,245,880,203,960,192C1040,181,1120,203,1200,224C1280,245,1360,267,1400,277.3L1440,288L1440,320L1400,320C1360,320,1280,320,1200,320C1120,320,1040,320,960,320C880,320,800,320,720,320C640,320,560,320,480,320C400,320,320,320,240,320C160,320,80,320,40,320L0,320Z"></path></svg>