<?xml version="1.0" standalone="no"?><svg xmlns="http://www.w3.org/2000/svg" viewBox="0 0 1440 320"><path fill="#d0e6ff" fill-opacity="1" d="M0,256L40,229.3C80,203,160,149,240,138.7C320,128,400,160,480,192C560,224,640,256,720,229.3C800,203,880,117,960,122.7C1040,128,1120,224,1200,234.7C1280,245,1360,171,1400,133.3L1440,96L1440,320L1400,320C1360,320,1280,320,1200,320C1120,320,1040,320,960,320C880,320,800,320,720,320C640,320,560,320,480,320C400,320,320,320,240,320C160,320,80,320,40,320L0,320Z"></path></svg>