<?xml version="1.0" standalone="no"?><svg xmlns="http://www.w3.org/2000/svg" viewBox="0 0 1440 320"><path fill="#d0e6ff" fill-opacity="1" d="M0,128L40,149.3C80,171,160,213,240,229.3C320,245,400,235,480,202.7C560,171,640,117,720,133.3C800,149,880,235,960,229.3C1040,224,1120,128,1200,90.7C1280,53,1360,75,1400,85.3L1440,96L1440,320L1400,320C1360,320,1280,320,1200,320C1120,320,1040,320,960,320C880,320,800,320,720,320C640,320,560,320,480,320C400,320,320,320,240,320C160,320,80,320,40,320L0,320Z"></path></svg>