<?xml version="1.0" standalone="no"?><svg xmlns="http://www.w3.org/2000/svg" viewBox="0 0 1440 320"><path fill="#d0e6ff" fill-opacity="1" d="M0,160L40,165.3C80,171,160,181,240,202.7C320,224,400,256,480,261.3C560,267,640,245,720,234.7C800,224,880,224,960,218.7C1040,213,1120,203,1200,181.3C1280,160,1360,128,1400,112L1440,96L1440,320L1400,320C1360,320,1280,320,1200,320C1120,320,1040,320,960,320C880,320,800,320,720,320C640,320,560,320,480,320C400,320,320,320,240,320C160,320,80,320,40,320L0,320Z"></path></svg>